<?xml version="1.0" encoding="iso-8859-1"?>
<!-- Generator: Adobe Illustrator 19.0.0, SVG Export Plug-In . SVG Version: 6.00 Build 0)  -->
<svg version="1.1" id="Capa_1" xmlns="http://www.w3.org/2000/svg" xmlns:xlink="http://www.w3.org/1999/xlink" x="0px" y="0px"
	 viewBox="0 0 512 512" style="enable-background:new 0 0 512 512;" xml:space="preserve">
<g>
	<g>
		<path d="M497,0C486.568,0,25.432,0,15,0C6.716,0,0,6.716,0,15v241c0,8.284,6.716,15,15,15c0,0,86.402,0,87.406,0
			c12.837,0,19.828-15.264,11.207-24.965C108.632,240.432,106,233.504,106,226c0-16.542,13.458-30,30-30s30,13.458,30,30
			c0,7.504-2.632,14.433-7.612,20.035c-5.503,6.192-4.946,15.673,1.246,21.177c4.871,4.329,9.494,3.789,15.966,3.789H241v46.895
			c-4.861-1.25-9.897-1.895-15-1.895c-33.084,0-60,26.916-60,60c0,33.084,26.916,60,60,60c5.103,0,10.139-0.646,15-1.896V497
			c0,8.284,6.716,15,15,15h241c8.284,0,15-6.716,15-15c0-10.432,0-471.568,0-482C512,6.716,505.284,0,497,0z M194.089,241
			c1.25-4.862,1.911-9.896,1.911-15c0-33.084-26.916-60-60-60s-60,26.916-60,60c0,5.104,0.661,10.138,1.911,15H30V30h211v72.4
			c0,12.907,15.307,19.797,24.966,11.21c5.521-4.907,12.636-7.61,20.034-7.61c16.542,0,30,13.458,30,30s-13.458,30-30,30
			c-7.398,0-14.514-2.703-20.034-7.61C256.319,149.814,241,156.677,241,169.6V241H194.089z M482,482H271v-72.4
			c0-12.908-15.305-19.796-24.964-11.212C240.432,403.368,233.504,406,226,406c-16.542,0-30-13.458-30-30s13.458-30,30-30
			c7.504,0,14.433,2.632,20.035,7.612C255.681,362.185,271,355.324,271,342.4v-71.5h46.911c-1.25,4.862-1.911,9.995-1.911,15.1
			c0,33.084,26.916,60,60,60s60-26.916,60-60c0-5.104-0.66-10.138-1.911-15H482V482z M482,241c-73.364,0-72.001,0.021-72.001,0.021
			c-13.052-0.367-20.343,15.121-11.61,24.945C403.297,271.487,406,278.602,406,286c0,16.542-13.458,30-30,30s-30-13.458-30-30
			c0-7.398,2.703-14.513,7.61-20.034c9.046-10.174,0.883-26.159-12.61-24.884c-0.521,0.049-70-0.082-70-0.082v-46.895
			c4.861,1.25,9.896,1.895,15,1.895c33.084,0,60-26.916,60-60s-26.916-60-60-60c-5.104,0-10.139,0.646-15,1.895V30h211V241z"/>
	</g>
</g>
<g>
</g>
<g>
</g>
<g>
</g>
<g>
</g>
<g>
</g>
<g>
</g>
<g>
</g>
<g>
</g>
<g>
</g>
<g>
</g>
<g>
</g>
<g>
</g>
<g>
</g>
<g>
</g>
<g>
</g>
</svg>
